<svg width="29" height="29" viewBox="0 0 29 29" fill="none" xmlns="http://www.w3.org/2000/svg">
<path d="M14.5 2L10.75 5.75H5.75V10.75L2 14.5L5.75 18.25V23.25H10.75L14.5 27L18.25 23.25H23.25V18.25L27 14.5L23.25 10.75V5.75H18.25L14.5 2Z" stroke="#707070" stroke-width="3" stroke-linejoin="round"/>
<path d="M14.5 18.25C15.4946 18.25 16.4484 17.8549 17.1517 17.1517C17.8549 16.4484 18.25 15.4946 18.25 14.5C18.25 13.5054 17.8549 12.5516 17.1517 11.8483C16.4484 11.1451 15.4946 10.75 14.5 10.75C13.5054 10.75 12.5516 11.1451 11.8483 11.8483C11.1451 12.5516 10.75 13.5054 10.75 14.5C10.75 15.4946 11.1451 16.4484 11.8483 17.1517C12.5516 17.8549 13.5054 18.25 14.5 18.25Z" stroke="#707070" stroke-width="3" stroke-linejoin="round"/>
</svg>
