<svg width="30" height="28" viewBox="0 0 30 28" fill="none" xmlns="http://www.w3.org/2000/svg">
<path d="M30 13.4597C29.9979 11.6038 29.2635 9.82447 27.9579 8.51213C26.6523 7.19979 24.8821 6.46158 23.0357 6.45944H17.7215C17.2607 6.43117 10.6768 5.92096 4.40094 0.630386C4.01054 0.300926 3.53472 0.0902796 3.02937 0.023185C2.52401 -0.0439095 2.0101 0.0353339 1.548 0.251609C1.08589 0.467884 0.694768 0.812209 0.420573 1.24415C0.146379 1.67608 0.00049426 2.1777 5.28913e-05 2.69008V24.2293C-0.00316977 24.7423 0.140938 25.2453 0.415084 25.678C0.689229 26.1107 1.08177 26.4546 1.54559 26.6686C2.00743 26.8878 2.52227 26.9687 3.02861 26.9016C3.53494 26.8345 4.01136 26.6223 4.40094 26.2904C7.61321 23.5759 11.435 21.6889 15.5357 20.7925V24.3195C15.5357 24.7627 15.6444 25.199 15.8524 25.5897C16.0603 25.9805 16.361 26.3136 16.7277 26.5596C16.7871 26.6 16.8493 26.636 16.9139 26.6673L18.8478 27.6177C19.2052 27.8328 19.6077 27.9611 20.0231 27.9925C20.4386 28.0238 20.8556 27.9573 21.241 27.7982C21.6263 27.6392 21.9695 27.3919 22.2432 27.0762C22.5169 26.7605 22.7135 26.3849 22.8174 25.9794L24.3027 20.3496C25.9031 20.0501 27.3488 19.1973 28.3893 17.9389C29.4299 16.6806 29.9997 15.096 30 13.4597ZM3.21433 23.1025V3.82089C8.05852 7.59968 12.8799 8.94992 15.5357 9.42917V17.4983C12.8799 17.9722 8.05852 19.3224 3.21433 23.1025ZM19.8737 24.5255L18.75 23.9735V20.46H20.9464L19.8737 24.5255ZM23.0357 17.2291H18.75V9.69033H23.0357C24.0303 9.69033 24.9841 10.0875 25.6874 10.7944C26.3906 11.5012 26.7857 12.46 26.7857 13.4597C26.7857 14.4594 26.3906 15.4182 25.6874 16.125C24.9841 16.8319 24.0303 17.2291 23.0357 17.2291Z" fill="#707070"/>
</svg>
