<svg width="29" height="27" viewBox="0 0 29 27" fill="none" xmlns="http://www.w3.org/2000/svg">
<path d="M14.5 15.75C15.7055 15.75 16.8617 15.2232 17.7141 14.2855C18.5666 13.3479 19.0455 12.0761 19.0455 10.75C19.0455 9.42392 18.5666 8.15215 17.7141 7.21447C16.8617 6.27678 15.7055 5.75 14.5 5.75C13.2945 5.75 12.1383 6.27678 11.2859 7.21447C10.4334 8.15215 9.95455 9.42392 9.95455 10.75C9.95455 12.0761 10.4334 13.3479 11.2859 14.2855C12.1383 15.2232 13.2945 15.75 14.5 15.75ZM14.5 15.75C12.6917 15.75 10.9575 16.5402 9.67882 17.9467C8.40016 19.3532 7.68182 21.2609 7.68182 23.25V27M14.5 15.75C16.3083 15.75 18.0425 16.5402 19.3212 17.9467C20.5998 19.3532 21.3182 21.2609 21.3182 23.25V27M15.6364 5.75C16.0955 3.67 17.9261 2 20.1818 2C22.65 2 24.7045 4.2375 24.7273 7C24.7045 9.7625 22.65 12 20.1818 12M20.1818 12H19.0455M20.1818 12C23.9182 12 27 15.3575 27 19.5V22M13.3636 5.75C12.9045 3.67 11.0739 2 8.81818 2C6.35 2 4.29545 4.2375 4.27273 7C4.29545 9.7625 6.35 12 8.81818 12M8.81818 12H9.95455M8.81818 12C5.08182 12 2 15.3575 2 19.5V22" stroke="#707070" stroke-width="3"/>
</svg>
