<svg width="29" height="28" viewBox="0 0 29 28" fill="none" xmlns="http://www.w3.org/2000/svg">
<path d="M8.94444 9.05882H20.0556M8.94444 14.7059H17.2778M22.8333 2C23.9384 2 24.9982 2.44622 25.7796 3.24049C26.561 4.03476 27 5.11202 27 6.23529V17.5294C27 18.6527 26.561 19.7299 25.7796 20.5242C24.9982 21.3185 23.9384 21.7647 22.8333 21.7647H15.8889L8.94444 26V21.7647H6.16667C5.0616 21.7647 4.00179 21.3185 3.22039 20.5242C2.43899 19.7299 2 18.6527 2 17.5294V6.23529C2 5.11202 2.43899 4.03476 3.22039 3.24049C4.00179 2.44622 5.0616 2 6.16667 2H22.8333Z" stroke="#707070" stroke-width="3" stroke-linecap="round" stroke-linejoin="round"/>
</svg>
